<?xml version="1.0" encoding="UTF-8" standalone="no"?>
<!DOCTYPE svg PUBLIC "-//W3C//DTD SVG 1.1//EN" "http://www.w3.org/Graphics/SVG/1.1/DTD/svg11.dtd">
<svg width="100%" height="100%" viewBox="0 0 1024 1024" version="1.1" xmlns="http://www.w3.org/2000/svg" xmlns:xlink="http://www.w3.org/1999/xlink" xml:space="preserve" style="fill-rule:evenodd;clip-rule:evenodd;stroke-linejoin:round;stroke-miterlimit:1.41421;">
    <g transform="matrix(1.06538,0,0,1.10121,-31.5166,-83.657)">
        <rect x="29.583" y="75.968" width="961.161" height="929.889" style="fill:rgb(112,48,160);"/>
    </g>
    <g transform="matrix(1.37789,0,0,1.37789,-193.478,-137.875)">
        <g transform="matrix(0.725749,0,0,0.725749,140.417,100.062)">
            <path d="M241.316,675.169C240.235,674.436 239.313,673.492 238.604,672.395C208.773,626.378 398.818,593.767 854.138,579.914C857.851,579.801 861.286,581.869 862.924,585.203C864.562,588.536 864.1,592.519 861.743,595.389C835.524,627.312 774.547,701.553 717.778,770.67C649.693,853.566 529.646,870.899 440.892,810.65C351.151,749.73 253.86,683.685 241.316,675.169ZM553.658,690.657C631.967,687.841 696.27,705.777 697.166,730.685C698.062,755.594 635.213,778.103 556.905,780.92C478.596,783.736 414.293,765.8 413.397,740.892C412.501,715.983 475.35,693.474 553.658,690.657Z" style="fill:white;"/>
        </g>
        <g transform="matrix(1.87519,0,0,2.01977,-2214.98,-2407.49)">
            <ellipse cx="1345.74" cy="1380.95" rx="49.444" ry="42.098" style="fill:white;"/>
        </g>
        <g transform="matrix(1.72309,-0.285572,0.320759,1.9354,-2039.88,-1947.28)">
            <ellipse cx="1345.74" cy="1380.95" rx="49.444" ry="42.098" style="fill:white;"/>
        </g>
        <g transform="matrix(1.29878,-0.046713,0.0246844,0.686311,-1500.93,-392.122)">
            <ellipse cx="1543.63" cy="1600.28" rx="79.284" ry="47.724" style="fill:white;fill-opacity:0.501961;"/>
        </g>
    </g>
</svg>
