<?xml version="1.0" standalone="no"?>
<!DOCTYPE svg PUBLIC "-//W3C//DTD SVG 20010904//EN"
 "http://www.w3.org/TR/2001/REC-SVG-20010904/DTD/svg10.dtd">
<svg version="1.0" xmlns="http://www.w3.org/2000/svg"
 width="16.000000pt" height="16.000000pt" viewBox="0 0 16.000000 16.000000"
 preserveAspectRatio="xMidYMid meet">
<metadata>
Created by potrace 1.11, written by Peter Selinger 2001-2013
</metadata>
<g transform="translate(0.000000,16.000000) scale(0.002286,-0.002286)"
fill="#000000" stroke="none">
<path d="M0 3500 l0 -3500 3500 0 3500 0 0 3500 0 3500 -3500 0 -3500 0 0
-3500z m5699 1979 c272 -70 487 -277 563 -545 28 -101 31 -276 5 -374 -71
-268 -283 -487 -550 -569 -454 -139 -928 119 -1032 561 -22 94 -19 258 6 354
43 164 161 338 298 439 104 76 273 141 411 159 65 8 221 -5 299 -25z m-3917
-355 c201 -41 398 -163 513 -317 123 -163 174 -346 153 -546 -29 -264 -211
-506 -473 -627 -141 -65 -211 -79 -395 -78 -149 0 -173 3 -253 27 -175 54
-333 154 -434 277 -62 74 -136 217 -158 305 -87 345 89 711 424 880 189 95
411 123 623 79z m4102 -2110 c41 -41 39 -45 -476 -671 -270 -329 -516 -626
-546 -660 -202 -229 -516 -399 -826 -448 -135 -21 -399 -16 -516 10 -119 26
-247 73 -357 130 -56 29 -417 267 -813 535 -570 387 -715 490 -727 516 -117
244 788 432 2602 538 484 29 1267 62 1507 65 112 1 139 -2 152 -15z"/>
<path d="M3700 2274 c-517 -42 -870 -178 -870 -335 0 -118 202 -213 550 -260
126 -17 516 -17 650 0 437 55 728 182 732 318 3 117 -202 217 -537 263 -81 11
-443 21 -525 14z"/>
</g>
</svg>
