<?xml version="1.0" encoding="UTF-8" standalone="no"?><!DOCTYPE svg PUBLIC "-//W3C//DTD SVG 1.1//EN" "http://www.w3.org/Graphics/SVG/1.1/DTD/svg11.dtd"><svg width="100%" height="100%" viewBox="0 0 384 384" version="1.1" xmlns="http://www.w3.org/2000/svg" xmlns:xlink="http://www.w3.org/1999/xlink" xml:space="preserve" style="fill-rule:evenodd;clip-rule:evenodd;stroke-linejoin:round;stroke-miterlimit:1.41421;"><g><path d="M90.493,253.188c-0.405,-0.275 -0.751,-0.628 -1.016,-1.04c-11.187,-17.256 60.08,-29.485 230.825,-34.68c1.392,-0.043 2.68,0.733 3.295,1.983c0.614,1.25 0.441,2.744 -0.443,3.82c-9.832,11.971 -32.699,39.811 -53.987,65.73c-25.532,31.086 -70.55,37.586 -103.832,14.993c-33.653,-22.845 -70.137,-47.612 -74.842,-50.806Zm117.129,5.809c29.365,-1.057 53.479,5.669 53.815,15.01c0.336,9.341 -23.232,17.782 -52.598,18.838c-29.365,1.056 -53.479,-5.67 -53.815,-15.011c-0.336,-9.34 23.232,-17.781 52.598,-18.837Z" style="fill:#7030a0;fill-opacity:1;"/><ellipse cx="86.87" cy="145.535" rx="47.907" ry="43.935" style="fill:#7030a0;fill-opacity:1;"/><path d="M293.484,82.455c24.296,-4.026 47.147,11.569 50.998,34.804c3.851,23.235 -12.748,45.368 -37.044,49.395c-24.296,4.027 -47.148,-11.568 -50.999,-34.804c-3.85,-23.235 12.748,-45.368 37.045,-49.395Z" style="fill:#7030a0;fill-opacity:1;"/><path d="M207.622,258.997c29.365,-1.057 53.479,5.669 53.815,15.01c0.336,9.341 -23.232,17.782 -52.598,18.838c-29.365,1.056 -53.479,-5.67 -53.815,-15.011c-0.336,-9.34 23.232,-17.781 52.598,-18.837Z" style="fill:#7030a0;fill-opacity:0.5;"/></g></svg>